<svg width="155" height="139" viewBox="0 0 155 139" fill="none" xmlns="http://www.w3.org/2000/svg">
<path d="M21.9358 101.08V105.6H14.4958V129H8.89578V105.6H1.45578V101.08H21.9358ZM31.6217 110.28C32.3417 109.107 33.2751 108.187 34.4217 107.52C35.5951 106.853 36.9284 106.52 38.4217 106.52V112.4H36.9417C35.1817 112.4 33.8484 112.813 32.9417 113.64C32.0617 114.467 31.6217 115.907 31.6217 117.96V129H26.0217V106.84H31.6217V110.28ZM40.7536 117.84C40.7536 115.6 41.1936 113.613 42.0736 111.88C42.9803 110.147 44.1936 108.813 45.7136 107.88C47.2603 106.947 48.9803 106.48 50.8736 106.48C52.5269 106.48 53.9669 106.813 55.1936 107.48C56.4469 108.147 57.4469 108.987 58.1936 110V106.84H63.8336V129H58.1936V125.76C57.4736 126.8 56.4736 127.667 55.1936 128.36C53.9403 129.027 52.4869 129.36 50.8336 129.36C48.9669 129.36 47.2603 128.88 45.7136 127.92C44.1936 126.96 42.9803 125.613 42.0736 123.88C41.1936 122.12 40.7536 120.107 40.7536 117.84ZM58.1936 117.92C58.1936 116.56 57.9269 115.4 57.3936 114.44C56.8603 113.453 56.1403 112.707 55.2336 112.2C54.3269 111.667 53.3536 111.4 52.3136 111.4C51.2736 111.4 50.3136 111.653 49.4336 112.16C48.5536 112.667 47.8336 113.413 47.2736 114.4C46.7403 115.36 46.4736 116.507 46.4736 117.84C46.4736 119.173 46.7403 120.347 47.2736 121.36C47.8336 122.347 48.5536 123.107 49.4336 123.64C50.3403 124.173 51.3003 124.44 52.3136 124.44C53.3536 124.44 54.3269 124.187 55.2336 123.68C56.1403 123.147 56.8603 122.4 57.3936 121.44C57.9269 120.453 58.1936 119.28 58.1936 117.92ZM67.863 117.92C67.863 115.627 68.3296 113.627 69.263 111.92C70.1963 110.187 71.4896 108.853 73.143 107.92C74.7963 106.96 76.6896 106.48 78.823 106.48C81.5696 106.48 83.8363 107.173 85.623 108.56C87.4363 109.92 88.6496 111.84 89.263 114.32H83.223C82.903 113.36 82.3563 112.613 81.583 112.08C80.8363 111.52 79.903 111.24 78.783 111.24C77.183 111.24 75.9163 111.827 74.983 113C74.0496 114.147 73.583 115.787 73.583 117.92C73.583 120.027 74.0496 121.667 74.983 122.84C75.9163 123.987 77.183 124.56 78.783 124.56C81.0496 124.56 82.5296 123.547 83.223 121.52H89.263C88.6496 123.92 87.4363 125.827 85.623 127.24C83.8096 128.653 81.543 129.36 78.823 129.36C76.6896 129.36 74.7963 128.893 73.143 127.96C71.4896 127 70.1963 125.667 69.263 123.96C68.3296 122.227 67.863 120.213 67.863 117.92ZM106.485 129L98.9655 119.56V129H93.3655V99.4H98.9655V116.24L106.405 106.84H113.685L103.925 117.96L113.765 129H106.485ZM137.325 117.44C137.325 118.24 137.272 118.96 137.165 119.6H120.965C121.098 121.2 121.658 122.453 122.645 123.36C123.632 124.267 124.845 124.72 126.285 124.72C128.365 124.72 129.845 123.827 130.725 122.04H136.765C136.125 124.173 134.898 125.933 133.085 127.32C131.272 128.68 129.045 129.36 126.405 129.36C124.272 129.36 122.352 128.893 120.645 127.96C118.965 127 117.645 125.653 116.685 123.92C115.752 122.187 115.285 120.187 115.285 117.92C115.285 115.627 115.752 113.613 116.685 111.88C117.618 110.147 118.925 108.813 120.605 107.88C122.285 106.947 124.218 106.48 126.405 106.48C128.512 106.48 130.392 106.933 132.045 107.84C133.725 108.747 135.018 110.04 135.925 111.72C136.858 113.373 137.325 115.28 137.325 117.44ZM131.525 115.84C131.498 114.4 130.978 113.253 129.965 112.4C128.952 111.52 127.712 111.08 126.245 111.08C124.858 111.08 123.685 111.507 122.725 112.36C121.792 113.187 121.218 114.347 121.005 115.84H131.525ZM147.012 110.28C147.732 109.107 148.666 108.187 149.812 107.52C150.986 106.853 152.319 106.52 153.812 106.52V112.4H152.332C150.572 112.4 149.239 112.813 148.332 113.64C147.452 114.467 147.012 115.907 147.012 117.96V129H141.412V106.84H147.012V110.28Z" fill="white"/>
<path d="M50.6938 78.9995C48.5761 79.0007 46.5056 78.3668 44.7438 77.1779C42.9821 75.9891 41.6083 74.2986 40.7959 72.3202C39.9836 70.3417 39.7692 68.1641 40.1799 66.0624C40.5906 63.9608 41.6078 62.0294 43.1032 60.5124C43.5645 60.048 44.0713 59.6323 44.6159 59.2717C44.7998 59.1407 44.9634 59.0373 45.1405 58.9339C45.5357 58.6996 45.9309 58.4928 46.2989 58.3204C46.5033 58.2308 46.7077 58.1343 46.9258 58.0516C47.3579 57.8853 47.7993 57.7449 48.2477 57.6311L48.5202 57.5553L48.6837 57.514L51.0686 57.3485C51.3684 57.3485 51.6955 57.3968 52.0362 57.445H52.1725H52.4723H52.5677H52.6767H52.7721H53.2967C55.3762 57.4282 57.4316 56.993 59.3431 56.1646C61.2546 55.3362 62.9841 54.1312 64.4306 52.6199C65.8837 51.1245 67.0269 49.3506 67.7933 47.4023C68.5597 45.454 68.9338 43.3705 68.8937 41.274V41.1568V41.0258C68.8756 40.9094 68.8642 40.7921 68.8596 40.6743C68.8596 40.5364 68.846 40.3986 68.8188 40.2607V40.0195C68.8188 39.8058 68.7779 39.6059 68.7642 39.3991L68.9414 36.9796C68.9565 36.919 68.9746 36.8592 68.9959 36.8004L69.0368 36.6488C69.1398 36.1806 69.2741 35.72 69.4388 35.2702C69.5142 35.0544 69.6006 34.8427 69.6978 34.636C69.8671 34.2497 70.0558 33.8724 70.2633 33.5056C70.3655 33.3332 70.4677 33.1609 70.5836 32.9886C70.9463 32.4384 71.3592 31.9238 71.8169 31.4514C73.83 29.4186 76.559 28.2779 79.4035 28.2805C82.248 28.2831 84.975 29.4287 86.9846 31.4652C88.9941 33.5018 90.1216 36.2625 90.1191 39.14C90.1165 42.0175 88.9841 44.7762 86.9709 46.8091C86.5061 47.2695 85.9996 47.6849 85.4583 48.0498C85.2811 48.1739 85.1107 48.2773 84.9404 48.3738C84.5666 48.6034 84.1798 48.8105 83.782 48.9942C83.5708 49.0907 83.3596 49.1872 83.162 49.263C82.7382 49.4257 82.3032 49.5571 81.8605 49.6559L81.6016 49.7248L81.4313 49.78L79.0191 49.9523C78.7398 49.9523 78.44 49.8972 78.1265 49.8558H77.9153H77.6155H77.5337H77.4111H76.791C72.6138 49.9121 68.6285 51.6389 65.7059 54.6587C62.7834 57.6784 61.1612 61.7457 61.194 65.9717V66.0958V66.2129C61.2121 66.3294 61.2235 66.4467 61.2281 66.5645C61.2281 66.7092 61.2281 66.8402 61.269 66.9781C61.2757 67.1051 61.2893 67.2317 61.3099 67.3572C61.3099 67.5226 61.3099 67.688 61.3099 67.8535V67.9086L61.1395 70.2316C61.1395 70.2798 61.0509 70.5487 61.0305 70.6314C60.9301 71.0995 60.798 71.5601 60.6353 72.01C60.5637 72.2195 60.4795 72.4243 60.3832 72.6234C60.1968 73.0359 59.9898 73.4385 59.7631 73.8297C59.6609 73.9952 59.5451 74.1882 59.4224 74.3674C59.0655 74.9096 58.657 75.4152 58.2027 75.877C56.2076 77.8831 53.5069 79.0062 50.6938 78.9995Z" fill="white"/>
<path d="M81.6236 80.9995C79.5072 80.9993 77.4384 80.365 75.6781 79.1765C73.9179 77.9879 72.5451 76.2986 71.733 74.3215C70.921 72.3445 70.706 70.1684 71.1153 68.0679C71.5247 65.9674 72.5399 64.0367 74.0329 62.5194C74.5009 62.0528 75.012 61.6327 75.5592 61.2648C75.7159 61.1545 75.8863 61.0511 76.0634 60.9477C76.441 60.7188 76.8299 60.5094 77.2286 60.3205L77.8487 60.0516C78.272 59.898 78.7044 59.7714 79.1433 59.6725L79.5658 59.5485L81.9915 59.3692C82.2777 59.3692 82.5843 59.4244 82.9046 59.4657H83.0886H83.4088H83.5246H83.5996H83.7018H84.2333C88.4069 59.404 92.387 57.6749 95.3052 54.6557C98.2233 51.6365 99.8426 47.5723 99.8098 43.3499V42.8467L99.7689 42.7915C99.7651 42.7734 99.7651 42.7546 99.7689 42.7364V42.3779L99.7281 42.0333C99.7281 41.8403 99.6804 41.6542 99.6735 41.4612L99.8371 39.1176C99.8371 39.0555 99.9325 38.766 99.9529 38.6833C100.037 38.231 100.149 37.7844 100.287 37.346C100.364 37.1323 100.453 36.9229 100.553 36.7188C100.736 36.3127 100.94 35.9169 101.166 35.5332L101.213 35.4574C101.295 35.3126 101.377 35.1747 101.472 35.0369C101.838 34.4828 102.253 33.9637 102.713 33.486C104.724 31.4533 107.45 30.3115 110.293 30.3115C113.136 30.3115 115.862 31.4533 117.873 33.486C119.876 35.5239 121 38.2808 121 41.1544C121 44.0281 119.876 46.7849 117.873 48.8229C117.403 49.2795 116.894 49.6945 116.354 50.0637L116 50.2911L115.816 50.4083C115.449 50.6263 115.072 50.8242 114.685 51.0011C114.466 51.1045 114.269 51.1941 114.058 51.2768C113.628 51.4344 113.189 51.5634 112.743 51.6628L112.47 51.7456L112.306 51.7869L109.922 51.9592C109.574 51.9592 109.199 51.8903 108.831 51.8421H108.518H108.463H108.259H107.728C103.543 51.8893 99.5485 53.6144 96.6204 56.6386C93.6923 59.6627 92.0702 63.7388 92.1101 67.9717V68.0958V68.213C92.1169 68.337 92.1169 68.4612 92.1101 68.5852C92.1101 68.7093 92.1101 68.8402 92.1442 68.9574C92.1783 69.0746 92.1442 69.1918 92.1442 69.3228C92.1705 69.5055 92.1864 69.6896 92.1919 69.8742L92.1101 72.2523L92.0079 72.6245C91.9049 73.092 91.7729 73.5524 91.6127 74.0031C91.5446 74.1961 91.456 74.3891 91.3742 74.5821L91.3402 74.6511C91.1619 75.0437 90.9617 75.4257 90.7405 75.7953C90.6315 75.9814 90.5293 76.1606 90.4135 76.333C89.4429 77.7843 88.1322 78.97 86.5985 79.7842C85.0648 80.5985 83.3556 81.016 81.6236 80.9995Z" fill="white"/>
<path d="M44.7281 50.7523C42.6084 50.7542 40.5358 50.1204 38.7722 48.9308C37.0086 47.7412 35.6333 46.0494 34.8201 44.0692C34.0069 42.089 33.7924 39.9094 34.2037 37.8058C34.6149 35.7023 35.6335 33.7694 37.1306 32.2514C37.5986 31.7897 38.1072 31.3721 38.6501 31.0038L39.1748 30.666C39.5427 30.4454 39.9243 30.2455 40.3263 30.0525C40.5307 29.9629 40.7351 29.8664 40.96 29.7837C41.3783 29.6291 41.8063 29.5024 42.241 29.4046L42.5136 29.3288C42.5603 29.3118 42.6081 29.298 42.6567 29.2874L45.0824 29.1082C45.3958 29.1082 45.7638 29.1702 46.0977 29.2185H46.1726H46.4929H46.5951H46.6973H47.3514C49.4274 29.199 51.4789 28.7624 53.3868 27.934C55.2946 27.1057 57.0207 25.9022 58.4649 24.3934C59.9169 22.8961 61.0589 21.1207 61.8241 19.1713C62.5893 17.2219 62.9623 15.1376 62.9211 13.0405V12.9234V12.8062C62.8971 12.6742 62.8834 12.5405 62.8803 12.4064V12.0755L62.7917 11.7584C62.7917 11.5654 62.744 11.3587 62.7372 11.1588L62.9007 8.88406V8.82891V8.78756C62.9007 8.73241 63.0029 8.42912 63.0029 8.42912C63.1065 7.9618 63.2385 7.50139 63.3981 7.05052C63.4731 6.84373 63.5685 6.63693 63.6639 6.43014C63.8427 6.02196 64.0476 5.62593 64.2771 5.24454V5.18251C64.3725 5.02397 64.4611 4.86543 64.5701 4.71378C64.928 4.16807 65.3364 3.65799 65.7898 3.19043C67.803 1.15022 70.5348 0.00258976 73.3844 4.37769e-06C76.234 -0.00258101 78.968 1.14009 80.9847 3.17664C83.0015 5.21319 84.136 7.9768 84.1385 10.8595C84.1411 13.7422 83.0115 16.5079 80.9984 18.5481C80.5329 19.0058 80.0265 19.4188 79.4857 19.7819C79.3222 19.8991 79.1791 19.9818 79.036 20.0714L78.9542 20.1197C78.559 20.354 78.1774 20.5608 77.8095 20.7332C77.5914 20.8297 77.3938 20.9262 77.1894 21.002C76.7594 21.1599 76.3202 21.2912 75.8743 21.3949C75.7799 21.4151 75.6867 21.4405 75.595 21.4707L75.4246 21.519L73.0466 21.6844C72.7468 21.6844 72.4265 21.6292 72.0926 21.5879H71.9427H71.6361H71.4385H71.3295H70.798C66.6232 21.6496 62.642 23.3797 59.7237 26.4004C56.8053 29.4211 55.1868 33.487 55.2215 37.7107V37.8278V37.9519C55.2399 38.0729 55.2513 38.1949 55.2555 38.3172C55.2555 38.4482 55.2555 38.5723 55.2896 38.6964C55.3237 38.8204 55.2896 38.9307 55.3305 39.0548C55.3542 39.2331 55.3679 39.4126 55.3714 39.5925L55.201 41.9568C55.1883 42.0196 55.1724 42.0817 55.1533 42.1429L55.092 42.3566C54.9945 42.8247 54.8647 43.2854 54.7036 43.7352C54.6286 43.9419 54.5264 44.1556 54.431 44.3693C54.2579 44.7674 54.0645 45.1562 53.8519 45.5342C53.7428 45.7272 53.6406 45.8996 53.5248 46.065C53.1638 46.6165 52.7507 47.1313 52.2915 47.6021C51.2999 48.6093 50.1211 49.4079 48.823 49.9521C47.5249 50.4963 46.1332 50.7753 44.7281 50.7729V50.7523Z" fill="white"/>
</svg>
